<svg xmlns="http://www.w3.org/2000/svg" width="127.457" height="79.924" viewBox="0 0 127.457 79.924">
  <g id="Group_41" data-name="Group 41" transform="translate(-5191 -1895.123)">
    <path id="Path_90" data-name="Path 90" d="M2811.2,307.321c-.113.064-.287.166-.347.05-.093-.18.135-.141.225-.2Z" transform="translate(2483.978 1590.558)" fill="#2d231f"/>
    <path id="Path_77" data-name="Path 77" d="M2193.529,475.124v-6.332h14.9v-5.513a8.6,8.6,0,0,0-.437-3,4.037,4.037,0,0,0-1.282-1.8,4.673,4.673,0,0,0-2.074-.873,15.889,15.889,0,0,0-2.757-.218h-5.294v-6.058h6.55a21.281,21.281,0,0,1,4.339.437,8.9,8.9,0,0,1,3.713,1.692,8.6,8.6,0,0,1,2.564,3.492,15.083,15.083,0,0,1,.954,5.84v12.337Z" transform="translate(2997.471 1470.649)" fill="#a6a184"/>
    <path id="Path_78" data-name="Path 78" d="M2564.746,475.1a6.274,6.274,0,0,1-3.766-1.064,7.99,7.99,0,0,1-2.292-2.483,6.444,6.444,0,0,1-2.647,2.62,8.079,8.079,0,0,1-3.9.928h-12.882v-6.332H2551.7a1.9,1.9,0,0,0,1.692-.655,3.818,3.818,0,0,0,.437-2.074q0-2.183-.164-3.849a6.357,6.357,0,0,0-.818-2.729,4.067,4.067,0,0,0-1.937-1.61,9.221,9.221,0,0,0-3.521-.545H2542.2v-6h6.441a14.05,14.05,0,0,1,5.348.9,8.776,8.776,0,0,1,3.494,2.483,9.692,9.692,0,0,1,1.883,3.739,18.135,18.135,0,0,1,.573,4.667,6.7,6.7,0,0,0,1.146,4.23,4.522,4.522,0,0,0,3.766,1.446h1.966a1.347,1.347,0,0,1,1.146.437,1.683,1.683,0,0,1,.327,1.037v3.329a1.853,1.853,0,0,1-.355.983,1.238,1.238,0,0,1-1.119.545Z" transform="translate(2709.881 1470.674)" fill="#a6a184"/>
    <path id="Path_79" data-name="Path 79" d="M2904.968,407.219a7.286,7.286,0,0,0-1.965-.273,2.031,2.031,0,0,0-1.365.464,1.723,1.723,0,0,0-.545,1.392,2.1,2.1,0,0,0,.737,1.528,3.25,3.25,0,0,0,2.32.71h1.692v2.893h-9.225V411.04h2.456a11.451,11.451,0,0,1-.818-1.31,3.4,3.4,0,0,1-.382-1.637,3.815,3.815,0,0,1,1.2-2.784,4.971,4.971,0,0,1,3.657-1.2,9.452,9.452,0,0,1,1.392.109,11.491,11.491,0,0,1,1.337.272Zm-6.386-46.777h6.167v39.081h-6.167Z" transform="translate(2412.615 1546.249)" fill="#a6a184"/>
    <g id="Group_37" data-name="Group 37" transform="translate(5191 1950.702)">
      <path id="Path_80" data-name="Path 80" d="M2205.572,651.221q.591,0,.591.457v.989a.531.531,0,0,1-.441.607.539.539,0,0,1-.15,0h-6.482a6.837,6.837,0,0,1-2.588-.437,4.863,4.863,0,0,1-1.723-1.13,4.215,4.215,0,0,1-.952-1.58,5.6,5.6,0,0,1-.3-1.785,6.36,6.36,0,0,1,.4-2.247,5.993,5.993,0,0,1,1.094-1.862,5.114,5.114,0,0,1,1.661-1.258,4.794,4.794,0,0,1,2.1-.462,5.1,5.1,0,0,1,1.957.361,4.194,4.194,0,0,1,1.483,1,4.515,4.515,0,0,1,.939,1.558,5.767,5.767,0,0,1,.334,2v3.786Zm-4.134,0v-2.965a4.592,4.592,0,0,0-.732-2.771,2.47,2.47,0,0,0-2.119-.993,2.831,2.831,0,0,0-1.13.232,3.006,3.006,0,0,0-.976.683,3.385,3.385,0,0,0-.693,1.07,3.593,3.593,0,0,0-.256,1.393,3.822,3.822,0,0,0,.282,1.547,2.74,2.74,0,0,0,.771,1.044,3.09,3.09,0,0,0,1.1.58,4.628,4.628,0,0,0,1.31.18Zm-5.625-12.608a1.183,1.183,0,1,1,.346.835,1.136,1.136,0,0,1-.346-.835m3.415,0a1.2,1.2,0,1,1,.379.867l-.032-.032a1.138,1.138,0,0,1-.347-.835" transform="translate(-2193.529 -634.863)" fill="#5c5a5b"/>
      <path id="Path_81" data-name="Path 81" d="M2260,653.249q-.59,0-.591-.457V651.8a.53.53,0,0,1,.591-.609h4.287a3.937,3.937,0,0,1-.949-1.378,4.807,4.807,0,0,1-.377-1.944,5.219,5.219,0,0,1,.4-1.984,5.289,5.289,0,0,1,1.13-1.725,5.773,5.773,0,0,1,1.746-1.21,5.34,5.34,0,0,1,2.247-.464,4.813,4.813,0,0,1,1.862.347,4.077,4.077,0,0,1,1.425.976,4.218,4.218,0,0,1,.9,1.5,5.835,5.835,0,0,1,.309,1.952v5.983Zm10.922-2.055v-4.047a3.05,3.05,0,0,0-.153-.941,2.473,2.473,0,0,0-.485-.863,2.508,2.508,0,0,0-.857-.631,2.9,2.9,0,0,0-1.24-.245,3.152,3.152,0,0,0-1.189.232,2.886,2.886,0,0,0-1.01.683,3.579,3.579,0,0,0-.7,1.07,3.473,3.473,0,0,0-.269,1.392,3.028,3.028,0,0,0,1.509,2.861,4.1,4.1,0,0,0,1.508.49Zm-5.6-12.608a1.184,1.184,0,1,1,.346.835,1.137,1.137,0,0,1-.346-.835m3.415,0a1.184,1.184,0,1,1,.346.835,1.138,1.138,0,0,1-.346-.835" transform="translate(-2248.325 -634.837)" fill="#5c5a5b"/>
      <path id="Path_82" data-name="Path 82" d="M2363.488,622.158h2.054v16.357h2q.591,0,.59.457v.989a.53.53,0,0,1-.59.609h-4.058Z" transform="translate(-2334.908 -622.158)" fill="#5c5a5b"/>
      <path id="Path_83" data-name="Path 83" d="M2382.369,640.57q-.59,0-.591-.457v-.989a.53.53,0,0,1,.591-.609h3.9V622.158h2.054v12.328a12.424,12.424,0,0,1,1.528-2.364,7.807,7.807,0,0,1,1.669-1.52,6.142,6.142,0,0,1,1.759-.8,6.866,6.866,0,0,1,1.8-.243,6.023,6.023,0,0,1,2.53.5,5.336,5.336,0,0,1,1.836,1.358,5.677,5.677,0,0,1,1.117,2.037,8.384,8.384,0,0,1,.373,2.536v4.586Zm16.46-4.271a7.011,7.011,0,0,0-.308-2.244,3.706,3.706,0,0,0-.848-1.443,3.075,3.075,0,0,0-1.3-.773,5.551,5.551,0,0,0-1.631-.232,5.039,5.039,0,0,0-2.119.49,6.747,6.747,0,0,0-1.963,1.392,8.454,8.454,0,0,0-2.364,5.026h10.528Z" transform="translate(-2350.117 -622.158)" fill="#5c5a5b"/>
      <path id="Path_84" data-name="Path 84" d="M2553.151,678.17v-2.055h7.447v-3.3a5.1,5.1,0,0,0-.257-1.765,2.365,2.365,0,0,0-.758-1.07,2.747,2.747,0,0,0-1.207-.516,9.022,9.022,0,0,0-1.605-.129h-2.105v-1.978h2.748a9.242,9.242,0,0,1,1.952.206,4.062,4.062,0,0,1,1.683.783,3.994,3.994,0,0,1,1.168,1.579,6.634,6.634,0,0,1,.434,2.62v5.624Z" transform="translate(-2492.677 -659.758)" fill="#5c5a5b"/>
      <path id="Path_85" data-name="Path 85" d="M2635.959,678.424a6.8,6.8,0,0,1-2.581-.437,4.853,4.853,0,0,1-1.721-1.13,4.22,4.22,0,0,1-.95-1.579,5.6,5.6,0,0,1-.295-1.784,6.555,6.555,0,0,1,.385-2.247,5.813,5.813,0,0,1,1.079-1.862,5.14,5.14,0,0,1,1.643-1.258,4.748,4.748,0,0,1,2.105-.462,5.092,5.092,0,0,1,1.952.361,4.323,4.323,0,0,1,1.489,1,4.248,4.248,0,0,1,.938,1.554,5.951,5.951,0,0,1,.321,1.99v5.983a6.752,6.752,0,0,1-.475,2.671,4.543,4.543,0,0,1-1.348,1.8,5.631,5.631,0,0,1-2.067,1.014,10.029,10.029,0,0,1-2.606.32q-.514,0-1.078-.026a10.844,10.844,0,0,1-1.207-.128l.206-1.951q.59.051,1.143.09t1.066.04a8.562,8.562,0,0,0,1.656-.154,3.488,3.488,0,0,0,1.387-.591,3.045,3.045,0,0,0,.961-1.207,5.017,5.017,0,0,0,.385-2Zm2.364-2.08V673.39a4.45,4.45,0,0,0-.758-2.76,2.49,2.49,0,0,0-2.093-.989,2.928,2.928,0,0,0-1.143.231,2.967,2.967,0,0,0-.989.681,3.363,3.363,0,0,0-.693,1.066,3.574,3.574,0,0,0-.257,1.386,3.808,3.808,0,0,0,.282,1.541,2.732,2.732,0,0,0,.771,1.042,3.076,3.076,0,0,0,1.117.578,4.777,4.777,0,0,0,1.323.18Z" transform="translate(-2556.946 -660.011)" fill="#5c5a5b"/>
      <path id="Path_86" data-name="Path 86" d="M2709.419,651.195q.59,0,.591.457v.989a.53.53,0,0,1-.591.609h-.488a7.66,7.66,0,0,1-.873-.051,2.755,2.755,0,0,1-.847-.241,2.466,2.466,0,0,1-.758-.558,2.625,2.625,0,0,1-.552-.977v1.929a6.943,6.943,0,0,1-.3,2.067,4.973,4.973,0,0,1-.884,1.683,4.129,4.129,0,0,1-1.448,1.129,4.514,4.514,0,0,1-1.966.411,10.735,10.735,0,0,1-1.091-.052q-.5-.052-.783-.1l.231-2.029.591.1a3.6,3.6,0,0,0,.539.064q.281.013.514.013a2.161,2.161,0,0,0,2.016-.873,5.226,5.226,0,0,0,.527-2.644v-9.631h2.054v4.664a4.842,4.842,0,0,0,.141,1.2,2.4,2.4,0,0,0,.488.966,2.311,2.311,0,0,0,.912.644,3.731,3.731,0,0,0,1.412.232Zm-5.7-12.608a1.184,1.184,0,1,1,.347.835,1.138,1.138,0,0,1-.347-.835" transform="translate(-2614.357 -634.837)" fill="#5c5a5b"/>
      <path id="Path_87" data-name="Path 87" d="M2753.589,653.238q-.59,0-.59-.457v-.989a.53.53,0,0,1,.59-.609h2.208a1.341,1.341,0,0,0,1.246-.528,2.744,2.744,0,0,0,.32-1.43V643.48h2.056v4.664a4.854,4.854,0,0,0,.141,1.2,2.4,2.4,0,0,0,.488.966,2.314,2.314,0,0,0,.912.644,3.65,3.65,0,0,0,1.387.231h.564q.59,0,.591.457v.989a.531.531,0,0,1-.591.609h-.641a4.019,4.019,0,0,1-1.977-.456,2.42,2.42,0,0,1-1.133-1.523,4.251,4.251,0,0,1-.624,1.027,2.417,2.417,0,0,1-.742.6,2.981,2.981,0,0,1-.865.281,6.033,6.033,0,0,1-.977.076Zm1.9-14.664a1.185,1.185,0,1,1,.347.835,1.138,1.138,0,0,1-.347-.835m3.416,0a1.184,1.184,0,1,1,.347.835,1.138,1.138,0,0,1-.347-.835" transform="translate(-2658.912 -634.826)" fill="#5c5a5b"/>
      <path id="Path_88" data-name="Path 88" d="M2806.731,683.378q-.591,0-.591-.457v-.989a.53.53,0,0,1,.591-.609h3.852v-7.7h2.054v9.758Zm3.518,4.134a1.184,1.184,0,1,1,.347.835,1.136,1.136,0,0,1-.347-.835" transform="translate(-2703.118 -664.966)" fill="#5c5a5b"/>
    </g>
    <path id="Path_89" data-name="Path 89" d="M2713.553,438.644a12.744,12.744,0,0,0-2.351-4.626,10.855,10.855,0,0,0-3.993-3.021,13.561,13.561,0,0,0-5.636-1.093,13.081,13.081,0,0,0-5.314,1.06,12.948,12.948,0,0,0-4.219,2.953,13.328,13.328,0,0,0-2.8,4.527,15.974,15.974,0,0,0-1,5.714c0,4.024-1.332,6.763-3.993,6.763h-2.512a5.189,5.189,0,0,1-1.32-.084c-.5-.108-.419.881-.419,1.353v3.8c0,.43,0,.981.386,1.158a2.761,2.761,0,0,0,1.353.151h2.964a6.458,6.458,0,0,0,3.639-.7,7,7,0,0,0,2.673-3.317,10.143,10.143,0,0,0,2.286,2.222,10.959,10.959,0,0,0,2.641,1.352,12.858,12.858,0,0,0,2.8.644,24.987,24.987,0,0,0,2.834.161,14.262,14.262,0,0,0,5.893-1.092,11.044,11.044,0,0,0,3.961-2.925,11.192,11.192,0,0,0,2.222-4.209,17.773,17.773,0,0,0,.677-4.884,21.426,21.426,0,0,0-.773-5.912m-9.1,12.786c-.886.46-.972.452-.477-.043a3.435,3.435,0,0,0,.761-3.695,7.57,7.57,0,0,0-.583-1.083,4.022,4.022,0,0,1-.878-2.112,2.97,2.97,0,0,1,.051-.663c.032-.1.028-.183-.009-.182a4.251,4.251,0,0,0-.636.433c-.313.238-.618.468-.678.511-.155.115-.322-.141-.487-.743a4.833,4.833,0,0,1-.108-1.474l.028-.976-.553.6c-2.158,2.337-3.091,4.96-2.537,7.138a6.235,6.235,0,0,0,1.13,2.327c.18.19.289.345.241.345a5.262,5.262,0,0,1-.755-.331,5.846,5.846,0,0,1-2.972-3.8,6.739,6.739,0,0,1,.034-3,11.883,11.883,0,0,1,2.649-4.452,17.641,17.641,0,0,0,2.22-3.032,4.764,4.764,0,0,0,.5-1.892.863.863,0,0,1,.047-.4,20.693,20.693,0,0,1,2.39,2.154,13.245,13.245,0,0,1,3.63,6.072c.848,3.325-.477,6.973-3.01,8.29" transform="translate(2592.814 1488.471)" fill="#a6a184"/>
    <path id="Path_92" data-name="Path 92" d="M2407.324,305.321a2.821,2.821,0,0,0,1.039-1.226,2.607,2.607,0,0,0-.127-2.4c-.516-.909-1.052-1.806-1.6-2.74l-1.356,2.439-.666-1.586c-.065.028-.079.089-.106.136-.343.583-.694,1.16-1.022,1.751a2.618,2.618,0,0,0-.081,2.5,2.649,2.649,0,0,0,.844,1.017c.037.028.075.054.111.083.007.006.008.02.013.032-.068.04-.122-.01-.177-.03a4.677,4.677,0,0,1-2.606-6.354c.376-.8.865-1.541,1.312-2.3.952-1.625,1.915-3.245,2.873-4.866l.072-.119c.06.019.071.075.1.117q1.917,3.246,3.834,6.493a5.085,5.085,0,0,1,.785,3,4.742,4.742,0,0,1-3.215,4.091Z" transform="translate(2824.761 1603.473)" fill="#ff4b4b"/>
    <path id="Path_93" data-name="Path 93" d="M2358.832,404.1q-.931-4.038-1.877-8.07-2.184-9.325-4.382-18.647c-.3-1.281-.572-2.571-.858-3.858a5.584,5.584,0,0,1-2.347.592,5.074,5.074,0,0,1-1.177-.153,5.6,5.6,0,0,1-1.112-.417q-1.2,5.123-2.393,10.243-1.763,7.517-3.528,15.034c-.414,1.761-.841,3.518-1.255,5.277h-6.664v6.3h32.215v-6.3Zm-6.7-15.022c.4,1.715.8,3.429,1.2,5.144.033.146.121.328-.025.425-.119.081-.25-.064-.363-.133q-1.607-.966-3.214-1.934a2.524,2.524,0,0,0-.375-.153l-1.759-1.137c.639-.385,1.253-.757,1.865-1.128.743-.425,1.49-.843,2.225-1.281C2351.959,388.722,2352.062,388.789,2352.129,389.083Zm-4.946-2.48q1.024-4.394,2.058-8.788a.413.413,0,0,1,.121-.272c.468,1.48.721,3.013,1.112,4.513.255.991.462,1.994.7,2.99a.554.554,0,0,1-.3.708,6.473,6.473,0,0,0-1.541.992c-.853.321-1.557.918-2.443,1.323A7.583,7.583,0,0,1,2347.184,386.6ZM2343.3,403.13q.925-3.922,1.851-7.843c.086-.365.207-.726.257-1.1.067-.479.264-.412.582-.217.962.594,1.936,1.167,2.906,1.747a.829.829,0,0,0,.437.138c.073.244.3.311.488.424.832.506,1.658,1.027,2.509,1.5.422.235.291.333-.024.515-.889.511-1.767,1.046-2.648,1.571-.131.077-.293.121-.325.3a4.147,4.147,0,0,0-1.4.732c-1.424.821-2.83,1.673-4.246,2.512-.113.067-.239.205-.365.1S2343.271,403.262,2343.3,403.13Zm5.282.975.486-.289a2.712,2.712,0,0,0,.282-.219,26.893,26.893,0,0,0,2.676-1.518c.805-.459,1.594-.943,2.386-1.424.224-.135.353-.215.439.161q.373,1.647.762,3.289Z" transform="translate(2881.254 1535.362)" fill="#a6a184"/>
  </g>
</svg>
